<svg width="32" height="32" viewBox="0 0 32 32" fill="none" xmlns="http://www.w3.org/2000/svg">
<path d="M28.1019 1.91998H4.53823C3.09168 1.91998 1.92004 3.09162 1.92004 4.53816V28.1018C1.92004 29.5483 3.09168 30.72 4.53823 30.72H28.1019C29.5484 30.72 30.72 29.5483 30.72 28.1018V4.53816C30.72 3.09162 29.5484 1.91998 28.1019 1.91998ZM18.9382 22.8654H8.4655C7.74288 22.8654 7.15641 22.279 7.15641 21.5563C7.15641 20.8337 7.74288 20.2473 8.4655 20.2473H18.9382C19.6608 20.2473 20.2473 20.8337 20.2473 21.5563C20.2473 22.279 19.6608 22.8654 18.9382 22.8654ZM24.1746 17.6291H8.4655C7.74288 17.6291 7.15641 17.0426 7.15641 16.32C7.15641 15.5974 7.74288 15.0109 8.4655 15.0109H24.1746C24.8972 15.0109 25.4837 15.5974 25.4837 16.32C25.4837 17.0426 24.8972 17.6291 24.1746 17.6291ZM24.1746 12.3927H8.4655C7.74288 12.3927 7.15641 11.8062 7.15641 11.0836C7.15641 10.361 7.74288 9.77453 8.4655 9.77453H24.1746C24.8972 9.77453 25.4837 10.361 25.4837 11.0836C25.4837 11.8062 24.8972 12.3927 24.1746 12.3927Z" fill="#49A6FC"/>
</svg>
