<svg width="17" height="17" viewBox="0 0 17 17" fill="none" xmlns="http://www.w3.org/2000/svg">
<path d="M7.4659 0.0800171C3.74821 0.0800171 0.719971 3.10826 0.719971 6.82594C0.719971 10.5436 3.74821 13.5719 7.4659 13.5719C9.08256 13.5719 10.5673 12.9978 11.7309 12.0448L15.7586 16.0726C15.8208 16.1373 15.8953 16.189 15.9776 16.2246C16.06 16.2603 16.1487 16.2791 16.2384 16.28C16.3282 16.2809 16.4172 16.2639 16.5003 16.23C16.5834 16.196 16.6589 16.1459 16.7224 16.0824C16.7858 16.0189 16.836 15.9435 16.8699 15.8604C16.9038 15.7773 16.9208 15.6882 16.9199 15.5985C16.919 15.5087 16.9002 15.4201 16.8646 15.3377C16.829 15.2553 16.7773 15.1808 16.7126 15.1187L12.6848 11.0909C13.6377 9.9273 14.2118 8.44261 14.2118 6.82594C14.2118 3.10826 11.1836 0.0800171 7.4659 0.0800171ZM7.4659 1.4292C10.4544 1.4292 12.8626 3.83741 12.8626 6.82594C12.8626 9.81447 10.4544 12.2227 7.4659 12.2227C4.47737 12.2227 2.06916 9.81447 2.06916 6.82594C2.06916 3.83741 4.47737 1.4292 7.4659 1.4292Z" fill="#9B9B9B"/>
</svg>
