<svg width="21" height="24" viewBox="0 0 21 24" fill="none" xmlns="http://www.w3.org/2000/svg">
<path d="M10.82 0.758194C10.5275 0.758194 10.2554 0.838736 10.0114 0.967557H9.99563L1.48254 5.53131C1.15314 5.67048 0.920044 6.006 0.920044 6.39998C0.920044 6.79115 1.14971 7.12667 1.47551 7.26866V7.28702L10.0027 11.8361L10.0097 11.8324C10.2545 11.9622 10.5266 12.0418 10.82 12.0418C11.1134 12.0418 11.3856 11.9622 11.6304 11.8324L11.6374 11.8361L20.1646 7.28702V7.26866C20.4904 7.12667 20.72 6.79115 20.72 6.39998C20.72 6.006 20.4869 5.67048 20.1575 5.53131L11.6445 0.967557H11.6286C11.3847 0.838736 11.1125 0.758194 10.82 0.758194ZM3.14895 10.2806L1.48254 11.1731C1.15314 11.3123 0.920044 11.6478 0.920044 12.0418C0.920044 12.4329 1.14971 12.7685 1.47551 12.9104V12.9288L10.0027 17.4779L10.0097 17.4742C10.2545 17.604 10.5266 17.6836 10.82 17.6836C11.1134 17.6836 11.3856 17.604 11.6304 17.4742L11.6374 17.4779L20.1646 12.9288V12.9104C20.4904 12.7685 20.72 12.4329 20.72 12.0418C20.72 11.6478 20.4869 11.3123 20.1575 11.1731L18.4911 10.2806C15.8766 11.6788 12.3081 13.5813 12.2667 13.5973C11.8032 13.8136 11.3177 13.9224 10.82 13.9224C10.3205 13.9224 9.83339 13.8127 9.36809 13.5955C9.32849 13.5804 5.76435 11.6797 3.14895 10.2806ZM3.14895 15.9223L1.48254 16.8149C1.15314 16.9541 0.920044 17.2896 0.920044 17.6836C0.920044 18.0747 1.14971 18.4103 1.47551 18.5522V18.5706L10.0027 23.1197L10.0097 23.116C10.2545 23.2458 10.5266 23.3254 10.82 23.3254C11.1134 23.3254 11.3856 23.2458 11.6304 23.116L11.6374 23.1197L20.1646 18.5706V18.5522C20.4904 18.4103 20.72 18.0747 20.72 17.6836C20.72 17.2896 20.4869 16.9541 20.1575 16.8149L18.4911 15.9223C15.8766 17.3206 12.3081 19.2231 12.2667 19.2391C11.8032 19.4554 11.3177 19.5642 10.82 19.5642C10.3205 19.5642 9.83339 19.4545 9.36809 19.2373C9.32849 19.2222 5.76435 17.3215 3.14895 15.9223Z" fill="#49A6FC"/>
</svg>
