<svg width="26" height="26" viewBox="0 0 26 26" fill="none" xmlns="http://www.w3.org/2000/svg">
<path d="M12.6893 0.680217C12.134 0.688355 11.6047 0.916603 11.2176 1.31481C10.8305 1.71301 10.6174 2.2486 10.625 2.80389V11.184H2.24486C1.96724 11.1801 1.69162 11.2314 1.434 11.3349C1.17637 11.4384 0.941895 11.5921 0.744188 11.787C0.546481 11.982 0.389488 12.2142 0.282332 12.4704C0.175177 12.7265 0.119995 13.0014 0.119995 13.279C0.119995 13.5567 0.175177 13.8315 0.282332 14.0877C0.389488 14.3438 0.546481 14.5761 0.744188 14.771C0.941895 14.9659 1.17637 15.1196 1.434 15.2232C1.69162 15.3267 1.96724 15.378 2.24486 15.374H10.625V23.7542C10.621 24.0318 10.6723 24.3074 10.7759 24.565C10.8794 24.8226 11.0331 25.0571 11.228 25.2548C11.4229 25.4525 11.6552 25.6095 11.9113 25.7167C12.1675 25.8238 12.4424 25.879 12.72 25.879C12.9976 25.879 13.2725 25.8238 13.5286 25.7167C13.7848 25.6095 14.0171 25.4525 14.212 25.2548C14.4069 25.0571 14.5606 24.8226 14.6641 24.565C14.7677 24.3074 14.8189 24.0318 14.815 23.7542V15.374H23.1951C23.4727 15.378 23.7484 15.3267 24.006 15.2232C24.2636 15.1196 24.4981 14.9659 24.6958 14.771C24.8935 14.5761 25.0505 14.3438 25.1577 14.0877C25.2648 13.8315 25.32 13.5567 25.32 13.279C25.32 13.0014 25.2648 12.7265 25.1577 12.4704C25.0505 12.2142 24.8935 11.982 24.6958 11.787C24.4981 11.5921 24.2636 11.4384 24.006 11.3349C23.7484 11.2314 23.4727 11.1801 23.1951 11.184H14.815V2.80389C14.8189 2.52377 14.7665 2.24573 14.661 1.98621C14.5555 1.72669 14.399 1.49096 14.2008 1.29296C14.0026 1.09496 13.7668 0.938722 13.5071 0.833476C13.2475 0.728229 12.9694 0.676116 12.6893 0.680217Z" fill="white"/>
</svg>
