<svg width="24" height="26" viewBox="0 0 24 26" fill="none" xmlns="http://www.w3.org/2000/svg">
<path d="M10.6015 1.75819C10.0842 1.75819 9.64197 2.14025 9.54261 2.67058L9.1819 4.60554C8.29548 4.95574 7.47585 5.445 6.75612 6.06226L4.98003 5.42315C4.49079 5.24713 3.95251 5.45849 3.69331 5.92563L2.06487 8.87434C1.80675 9.34261 1.90069 9.9371 2.29057 10.2914L3.7144 11.585C3.64035 12.0605 3.59206 12.5445 3.59206 13.0418C3.59206 13.5391 3.64035 14.0231 3.7144 14.4985L2.29057 15.7921C1.90069 16.1465 1.80675 16.7409 2.06487 17.2092L3.69331 20.1579C3.95143 20.6262 4.49079 20.8375 4.98003 20.6626L6.75612 20.0235C7.47561 20.6404 8.29588 21.128 9.1819 21.478L9.54261 23.413C9.64197 23.9433 10.0842 24.3254 10.6015 24.3254H13.8626C14.3799 24.3254 14.8222 23.9433 14.9215 23.413L15.2822 21.478C16.1686 21.1278 16.9883 20.6386 17.708 20.0213L19.4841 20.6604C19.9733 20.8364 20.5116 20.6262 20.7708 20.1579L22.3992 17.207C22.6574 16.7387 22.5634 16.1465 22.1735 15.7921L20.7497 14.4985C20.8238 14.0231 20.8721 13.5391 20.8721 13.0418C20.8721 12.5445 20.8238 12.0605 20.7497 11.585L22.1735 10.2914C22.5634 9.9371 22.6574 9.34261 22.3992 8.87434L20.7708 5.92563C20.5127 5.45736 19.9733 5.24605 19.4841 5.42095L17.708 6.06006C16.9885 5.44318 16.1682 4.95558 15.2822 4.60554L14.9215 2.67058C14.8222 2.14025 14.3799 1.75819 13.8626 1.75819H10.6015ZM12.2321 8.52834C14.6178 8.52834 16.5521 10.5492 16.5521 13.0418C16.5521 15.5343 14.6178 17.5552 12.2321 17.5552C9.84634 17.5552 7.91206 15.5343 7.91206 13.0418C7.91206 10.5492 9.84634 8.52834 12.2321 8.52834Z" fill="#161616"/>
</svg>
