<svg width="16" height="26" viewBox="0 0 16 26" fill="none" xmlns="http://www.w3.org/2000/svg">
<path d="M3.00473 1.99023C2.80579 1.99029 2.61139 2.04967 2.44638 2.16078C2.28138 2.27189 2.15325 2.42969 2.0784 2.614C2.00354 2.79832 1.98535 3.00077 2.02615 3.19547C2.06696 3.39017 2.1649 3.56828 2.30746 3.70703L11.6004 13L2.30746 22.293C2.21149 22.3851 2.13486 22.4955 2.08208 22.6176C2.02929 22.7397 2.00141 22.8712 2.00005 23.0042C1.9987 23.1373 2.0239 23.2692 2.07419 23.3924C2.12448 23.5156 2.19884 23.6275 2.29292 23.7216C2.387 23.8156 2.49891 23.89 2.62208 23.9403C2.74526 23.9906 2.87724 24.0158 3.01028 24.0144C3.14332 24.0131 3.27475 23.9852 3.39688 23.9324C3.51901 23.8796 3.62938 23.803 3.72152 23.707L13.7215 13.707C13.909 13.5195 14.0143 13.2652 14.0143 13C14.0143 12.7348 13.909 12.4805 13.7215 12.293L3.72152 2.29297C3.62833 2.19717 3.51689 2.12103 3.39377 2.06903C3.27066 2.01704 3.13837 1.99024 3.00473 1.99023Z" fill="white" stroke="white" stroke-width="3"/>
</svg>
